<?xml version="1.0" encoding="iso-8859-1"?>
<!-- Generator: Adobe Illustrator 25.2.1, SVG Export Plug-In . SVG Version: 6.00 Build 0)  -->
<svg version="1.1" xmlns="http://www.w3.org/2000/svg" xmlns:xlink="http://www.w3.org/1999/xlink" x="0px" y="0px"
	 viewBox="0 0 64 64" style="enable-background:new 0 0 64 64;" xml:space="preserve">
<g id="&#x421;&#x43B;&#x43E;&#x439;_1">
	<g>
		<polygon points="39.69,29.148 39.69,31.017 45.093,31.017 45.093,32.913 39.69,32.913 39.69,34.886 45.337,34.886 48.033,31.88 
			45.65,29.163 		"/>
		<polygon points="12.894,32.595 15.877,32.595 14.356,29.106 		"/>
		<path d="M57,12H7c-2.209,0-4,1.791-4,4v32c0,2.209,1.791,4,4,4h50c2.209,0,4-1.791,4-4V16C61,13.791,59.209,12,57,12z
			 M34.068,36.979h-2.45v-7.283l-3.352,7.283h-2.227l-3.273-7.41v7.41h-4.936l-0.969-2.229H11.97l-0.957,2.229H8.429L12.796,27h3.24
			l4.278,9.609V27h3.841l2.995,6.691L30.158,27h3.91V36.979z M55.54,37h-3.109l-2.872-3.32l-2.943,3.299h-9.341V27h9.656
			l2.714,3.118l2.807-3.097h3.119l-4.388,4.858L55.54,37z"/>
	</g>
</g>
<g id="Email_Open">
</g>
<g id="Money">
</g>
</svg>